# xmcd
#
# Track frame offsets:
#	150
#	17708
#	39095
#	62208
#	81203
#	112040
#	132668
#	151828
#	173420
#	200303
#	215858
#	231163
#
# Disc length: 3360 seconds
#
# Revision: 6
# Processed by: cddbd v1.5.1PL0 Copyright (c) Steve Scherf et al.
# Submitted via: CDmax 2.0
#
DISCID=9f0d1e0c
DTITLE=Herb Ellis and Red Mitchell - Doggin' Around
DYEAR=1989
DGENRE=Jazz
TTITLE0=Sweethearts on Parade
TTITLE1=I'm Confessin' That I Love You
TTITLE2=There's No Bad Blues
TTITLE3=Easy Living
TTITLE4=Over the Rainbow
TTITLE5=Blue Moon
TTITLE6=Old Folks
TTITLE7=Lady Be Good
TTITLE8=Willow Weep for Me
TTITLE9=Big 'N' and the Bear
TTITLE10=Mean to Me
TTITLE11=Life's a Take
EXTD=Recorded live at the Loa, Santa Monica, CA, in March, 1988.\nHerb Ellis
EXTD=: guitar;\nRed Mitchell: bass, vox (10).
EXTT0=
EXTT1=
EXTT2=
EXTT3=
EXTT4=
EXTT5=
EXTT6=
EXTT7=
EXTT8=
EXTT9=
EXTT10=
EXTT11=
PLAYORDER=
